<?xml version='1.0' encoding='utf-8'?>
<svg xmlns="http://www.w3.org/2000/svg" width="8.26772in" height="12.9921in" version="1.1" style="shape-rendering:geometricPrecision; text-rendering:geometricPrecision; image-rendering:optimizeQuality; fill-rule:evenodd; clip-rule:evenodd" viewBox="0 0 8267.72 12992.13"> <defs> <style type="text/css">  .fil10 {fill:#229652} .fil1 {fill:#229752} .fil21 {fill:#246E45} .fil27 {fill:#296F48} .fil17 {fill:#5A4D3E} .fil4 {fill:#624233} .fil20 {fill:#68584A} .fil11 {fill:#716152} .fil6 {fill:#76BB4D} .fil8 {fill:#77BC4E} .fil2 {fill:#79BC4D} .fil9 {fill:#7A6958} .fil16 {fill:#857160} .fil18 {fill:#896A46} .fil13 {fill:#897765} .fil0 {fill:#94725C} .fil23 {fill:#97734B} .fil7 {fill:#9BC84E} .fil19 {fill:#9E8158} .fil24 {fill:#AE8A60} .fil26 {fill:#C1A070} .fil15 {fill:#C1D740} .fil3 {fill:#C2D840} .fil28 {fill:#C3D941} .fil12 {fill:#C79E80} .fil25 {fill:#C8A677} .fil14 {fill:#E1E699} .fil5 {fill:#F0E871} .fil22 {fill:#F1EEB5}  </style> </defs> <g id="Layer_x0020_1"> <metadata id="CorelCorpID_0Corel-Layer"/> <g id="_2768374865840"> <path class="fil0" d="M4860.05 9582.41l118.38 50.29c40.4,17.64 79.04,41.55 116.37,54.37 18.38,-51.25 86.23,-107.23 116.48,-145.13 -13.71,-18.34 -6.03,-45.89 -2.68,-71.52 3.42,-26.2 5.49,-51.5 7.5,-77.54 4.32,-55.69 6.44,-110.85 6.3,-166.7 58.27,-28.17 62.13,3.97 89.49,-65.53 13.72,-34.88 29.62,-75.85 40.68,-114.59 51.65,-180.83 73.79,-349.49 83.72,-538.47 4.95,-94.16 -3.94,-216.21 5.21,-302.78 67.84,-46.2 66.63,12.44 104.85,-237.38 49.2,-321.53 13.14,-613.35 -84.15,-910.73l67.2 -34.06c-10.74,-339.58 -175.77,-857.58 -354.39,-1166.37 -25.26,-43.66 -69.65,-99.85 -87.39,-136.23l69.54 -39.01c-34.68,-161.23 -219.02,-481.05 -319.48,-621.43l-135.83 -186.33 -27.17 -24.08c-123.6,-11.26 -190.56,-5.88 -151,144 20.6,78.04 74.85,163.63 110.79,223.26 40.84,67.76 81.54,140.91 116.39,217.03 22.64,49.43 80.94,211.02 102.43,241.97l177.87 -21.17c-21.02,26.93 -111.41,97.04 -141.16,110.27l98.65 278c30.11,97.63 53.49,202.96 74.14,305.57 45.72,227.26 58.74,438.4 93.42,667.28l220.58 -12.87c-47.61,25.97 -166.33,109.54 -216.76,128.14 25.98,188.98 56.57,309.83 50.23,515.3 -4.9,158.87 -32.99,340.6 -81.45,477.61l184.81 53.49 -170.46 29.61c-4.5,249.37 -31.56,477.92 -103.02,713.07 -20.01,65.84 -52.22,141.3 -67.49,201.42l157.94 56.65 -144.89 34.66c-47.78,141.9 -30.57,186.02 -125.65,369.94z"/> <path class="fil1" d="M6134.63 3754.98l0 0zm-1714.53 302.33c52.19,-22.59 124.36,-26.35 184.87,-15.33 68.89,12.55 104.46,38.07 155.11,61.85 38.26,-31.07 365.2,-148.91 434.89,-154.71 0,-47.71 -23.3,-92.43 -23.3,-178.61 13.88,9.29 109.67,112.23 124.25,139.78l401.7 -48.72c80.5,-10.97 405.1,9.67 437,-5.64 18.57,-38.71 3.06,-64.27 0,-100.96 75.13,20.06 138.86,133.17 178.62,147.56 0,-49.49 8.18,-64.84 7.94,-116.3 -0.25,-52.19 -2.32,-81.93 7.59,-124.44 30.1,22.06 109.96,141.03 138.61,179.8 48.86,66.14 34.5,71.34 86.03,77.06 44.44,4.93 103.35,13.55 148.13,14.94 182.52,5.72 347.19,21.67 543.85,15.8 39.13,-1.17 38.87,-8.02 77.41,-8.02 -28.68,-54.2 -85.19,-110.91 -100.96,-178.61 97.31,51.49 220.05,159.63 279.57,248.5 83.85,-19.53 165.2,-37.11 251.65,-58.98l260.89 -57.51c-7.84,-29.35 -39.85,-56.81 -62.12,-67.75 -35.63,-25.09 -57.63,-47 -91.04,-71.36 -72.93,-31.36 -150.84,-79.82 -227.66,-116.85 -155.87,-75.14 -305.16,-141.56 -473.54,-194.27 -264.2,-82.72 -130.99,-10.87 -212.13,-123.98l-27.67 72.41c-98.35,-7.1 -522.05,-137.79 -672.61,-82.35l-16.42 88.72c-33.45,-16.62 -60.41,-58.11 -99.98,-91.65l-42.76 129.28c-105.15,17.97 -212.99,30.11 -318.28,47.09 -98.75,15.91 -207.78,41.63 -302.98,53.11l-90.11 -103.83 -0.6 137.67c-124.08,-42.19 -71.16,-88.2 -212.24,-10.18 -149.68,82.78 -442.86,276.96 -509.52,407.59 -114.49,-1.21 -115.52,-4.61 -222.57,16.16l-11.64 72.72z"/> <path class="fil2" d="M3346.71 4352.95l0 0zm-2834.52 44.36l-9.17 17.29c135.62,-69.64 510.41,-123.78 677.03,-123.78 -33.9,50.64 -115.79,94.56 -132.02,155.32l466.58 -7.14c54.64,-1.21 48.55,-15.95 103.6,-59.48 64.01,-50.62 115.72,-87.59 187.47,-130.93 49.66,-30.01 166.23,-88.24 236.37,-89.8 -8,6.95 -15.65,13.58 -25.04,21.56 -53.82,45.77 -155.56,142.05 -161.34,211.42 122.42,-81.97 342.31,-186.38 543.61,-186.38 -55.55,82.94 -169.31,139.78 -186.38,163.08l660.07 93.22c55.13,2.83 209.4,13.42 246.82,6.04 23.02,-4.54 185.51,-105.13 226.92,-114.78 -22.17,41.89 -76.41,106.91 -77.66,163.08 69.88,-33.53 351.57,-27.73 436.33,-16.98l138.33 26.32 30.89 -7.17c12.89,-30.32 33.91,-66.13 50.6,-83.96 21.65,-23.11 58.34,-46.99 73.85,-67.47 -34.5,-21.63 -61.18,-42.26 -92.18,-63.12 -12.8,11.46 -1.22,7.68 -18.45,3.7 -7.46,-1.72 -89.25,-74.07 -292.77,-125.23 -128.89,-32.4 -252.7,-48.11 -390.89,-59.98 -7.82,-46.09 30.24,-124.1 40.9,-169.5 -34.17,12.53 -79.41,53.43 -102.8,58.63 -27.47,6.11 -93.46,-13.9 -124.61,-20.02 -278.78,-54.83 -556.66,-63.75 -840.98,-52.89 6.45,-38.61 15.68,-64.32 32.22,-87.66 -72.61,12.11 -181.89,88.19 -240.55,134.2 -28.51,22.35 -36.39,41.26 -66.69,60.53 -178.06,-16.04 -306.96,-22.44 -488.5,-20.39l37.53 -96.88c-282.06,45.11 -528.78,154.59 -750.03,310.94 -75.48,53.34 -129.21,106.26 -189.07,158.21z"/> <path class="fil3" d="M3595.21 5711.97l-8.94 -15.14 8.94 15.14zm383.21 2118.83l20.26 18.33 0.9 -15.21 -23.56 -65.62c-38.95,-53.78 -132.99,-402.46 -156.42,-509.82 -29.74,-136.22 -89.96,-102.44 -164.42,-250.69 -16.39,-17.78 -26.28,-32.04 -38.68,-61.07 -3.41,-9.79 0.05,-5.83 -5.77,-16.06 -23.47,-20.44 -45.57,-77.41 -52.69,-114.06 9.81,12.11 23.5,28.36 33.76,40.56 20.89,24.8 25.98,15.92 35.13,50.72 52.6,37.3 83.97,90.97 146.89,124.26l-90.28 -290.24c-17.45,-53.26 -71.75,-268.36 -72.81,-315.49 54.63,26.22 36.96,-11.59 81.46,58.33 14.22,22.34 12.14,7.28 19.5,34.87 18.69,-13.7 20.71,-15.54 23.3,-46.6 42.36,9.87 66.37,36.73 108.72,46.6 7.58,-32.5 32.43,-75.73 54.37,-100.96l-23.3 178.62c82.35,55.15 164.54,163.99 186.38,178.61 0,-63.01 11.02,-129.24 46.59,-155.31 1.06,47.24 11.39,110.54 7.81,178.66 -1.83,34.64 -7.05,28.33 -7.81,62.07 127.24,85.2 126.38,98.16 219.73,176.33 76.59,64.13 178.48,188.72 207.39,196.43 10.74,-40.22 42.56,-52.5 46.6,-100.95l15.53 0c0,58.22 14.33,117.05 -7.77,163.08 30.59,-8.17 79.43,-68.42 100.96,-93.19 -1.42,63.86 -31.47,127.59 -54.36,170.84 17.58,26.25 40.65,44.66 64.07,67.95 108.17,107.52 141.31,203.81 153.63,219.72 20.06,25.91 4.08,12.42 15.13,7.44 0.22,-115.59 -27.69,-197.37 -81.59,-291.11 -18.02,-31.35 -40.52,-44.2 -33.54,-86.35 20.72,-125.09 10.58,-323.51 -46.21,-424.46 -5.81,83.35 -22.09,181.92 -70.37,228.16 -0.09,-62.28 -2.35,-117.59 -10.06,-178.73 -4.69,-37.25 -28,-133.96 -24.86,-158.76 -9.93,51.85 -9.02,95.08 -22.07,148.1 -12.46,50.69 -33.04,93.34 -43.81,136.31 -19.78,-11.93 -2.68,0.48 -18.64,-15.87 -2.61,-2.68 -12.88,-14.93 -17.92,-21.02 -64.19,-77.48 -201.23,-217.87 -291.15,-253.03 0.3,-118.33 6.34,-185.85 -12.04,-307.17 -33.77,0.61 -124.33,97.11 -143.75,119.38 -11.98,-10.68 -35.76,-48.28 -48.62,-65.24 -22.8,-30.08 -28.9,-36.26 -54.66,-61.93 -43.42,-43.3 -0.65,-115.51 17.67,-179.37 -27.48,12.37 -57.33,28.41 -84.52,44.36 -145.76,85.47 -80.81,-20.89 -84.39,-77.59 -1.93,-30.67 -29.63,-58.93 -41.39,-93.48l-25.97 -42.87c120.74,3.57 409.56,144.63 509.87,197.3 79.72,41.86 151.35,92.35 216.37,140.98 37.1,27.74 62.56,47.86 97.01,81.5 21.5,20.98 78.22,77.85 97.33,90.78 -19.36,-79.65 -345.11,-289.77 -400.43,-323.35 -248.79,-151 -501.86,-200.5 -520.03,-209.96 -37.71,-19.61 -132.63,-316.74 -135.69,-353.54l108.72 178.61c2.23,-99.81 14.81,-168.77 15.64,-310.74 0.28,-47.44 -6.77,-64.78 -8.23,-100.85 -6.41,-119.96 -26.88,-193.95 -48.55,-302.81 53.64,21.95 55.16,76.19 75.27,129.65 26.56,-104.32 56.81,-209.57 96.1,-300.63 13.98,-32.17 27.07,-62.5 40.63,-93.04 20.91,-47.07 30.26,-35.39 84.72,-47.55 -14.77,-16.1 -24.56,-21.11 -40.5,-43.5 -12.44,-17.46 -21.98,-32.67 -32.69,-52.84 -22.9,-43.17 -31.46,-84.26 -34.58,-139.24 -83.38,71.06 -138.07,164.06 -154.68,277.17 -49.06,-23.83 -90,-74.91 -143.04,-105.83 -4.23,292.43 24.42,506.85 93.26,770.84 -65.78,-29.52 -184.43,-195.59 -235.49,-265.85l-20.37 -23.03c-54.67,256.73 -116.11,355.74 -90.22,686.22 8.93,114.09 30.44,220.38 64.5,322.44 53.22,159.48 84,172.63 126.03,266.24 -98.76,-39.76 -220.82,-180.71 -254.56,-202.96 36.08,189.72 271.25,633.94 409.3,774.34 39.4,40.06 29.22,64.92 53.56,156.14 46.73,175.2 146.33,369.72 259.11,510.04 18.25,22.71 23.28,25.59 19.29,36.03z"/> <path class="fil4" d="M4325.15 4909.57c5.99,25.12 63.62,120.41 80.69,154.75 23.94,48.19 54.89,109.09 71.37,158.4 82.57,189.23 129.44,327.91 190.6,519.39 7.57,23.69 19.95,49.33 22.38,78.57 41.17,-3.43 59.78,-27.63 100.96,-31.06l77.44 605.95c8.72,100.72 19.24,212.8 30.14,311.56 12.33,111.67 3.06,223.33 10.11,340.56 0.11,22.61 -7.49,81.39 14.33,85.17 39.22,0.5 42.28,-7.51 85.42,-7.51 44.91,192.74 2.45,602.27 -49.65,812.35l-74.59 228.26c25.65,2.14 46.58,10.11 69.89,15.54 -10.31,21.48 -13.22,88.08 -17.74,122.05l-70.8 356.32c-23.67,94.7 -98.11,334.91 -144.43,422.46 26.48,7.07 75,40.63 100.95,54.36 -19.52,40.68 -30.02,89.77 -51.67,134.71 -19.04,39.55 -41.15,87.72 -62.16,121.56l-16.67 40.52 -88.75 124.03c-23.91,41.54 -39.81,55.08 -67.41,89 -16.33,11.51 -43.98,8.69 -63.46,9.91l58.75 133.38c17.56,-10.3 30.28,-30.19 43.69,-46.7 40.98,-50.48 92.89,-96.75 144.96,-132.68 12.9,-15.86 4.14,-8.85 22.28,-18.48 6.94,-3.69 22.85,-9.36 35.76,-11.41 42.2,-6.69 42.24,7.93 82.52,1.88 95.08,-183.92 77.87,-228.05 125.65,-369.94l144.89 -34.66 -157.94 -56.65c15.27,-60.13 47.48,-135.58 67.49,-201.42 71.46,-235.15 98.51,-463.69 103.02,-713.07l170.46 -29.61 -184.81 -53.49c48.46,-137.01 76.55,-318.74 81.45,-477.61 6.34,-205.48 -24.25,-326.32 -50.23,-515.3 50.43,-18.59 169.15,-102.17 216.76,-128.14l-220.58 12.87c-34.68,-228.88 -47.7,-440.02 -93.42,-667.28 -20.65,-102.61 -44.02,-207.94 -74.14,-305.57l-98.65 -278c29.74,-13.22 120.14,-83.34 141.16,-110.27l-177.87 21.17c-21.48,-30.95 -79.79,-192.54 -102.43,-241.97 -34.85,-76.12 -75.55,-149.27 -116.39,-217.03 -35.94,-59.63 -90.19,-145.22 -110.79,-223.26 -39.55,-149.87 27.41,-155.25 151,-144 -16.39,-22.89 -40.57,-50.82 -69.89,-64.5 -84.67,11.19 -107.4,-4.34 -172.5,-10.66 -22.67,14.44 -16.46,11.93 -31.84,34.69 -22.09,32.72 -53.02,54.57 -84.3,83.25l9.03 17.61z"/> <path class="fil5" d="M4912.93 4462.48c63.17,11.55 90.46,31.32 140.77,47.66 38.62,12.54 93.4,-26.36 132.54,-38.61l-62.7 130.14c144.05,43.26 366.89,213.11 482.35,311.19 51.81,44.01 82.33,88.62 132.69,140.5l247.82 -23.91c-191.74,201.46 -136.86,185.31 -94.66,311.85 14.23,42.68 20.71,103.85 33.21,137.42 32.24,-6.06 87.5,-34.17 122.98,-47.48 40.46,-15.18 88.61,-31.67 135.65,-38.57 -28.05,155.15 -88.8,289.09 -150.56,412.49 15.25,34.79 100.71,152.43 151.13,260.91 47.49,102.2 80.42,191.52 111.36,306.47 50.04,-26.66 156.25,-170.13 191.67,-230.34 17.84,-30.32 31.63,-68.48 51.17,-97.35 -7.96,142.68 -87.27,335.43 -130.41,457.79 89.03,-40.26 167.46,-169.35 220.93,-269.77 0.99,172.64 -75.21,443.57 -151.56,559.75 -42.48,64.64 -49.44,30.89 -31.41,128.99 35.66,193.91 11.52,297.25 -46.13,460.01 28.07,-20.74 43.61,-39.97 59.24,-69.89l121.65 -198.26c305.09,-553.94 162.81,-1217.33 -179.73,-1699.07 -132.04,-185.7 -160.07,-202.3 -284.28,-352.28 -89.56,-108.14 -131.15,-125.86 -199.49,-196.65 -18.24,-18.89 -23.71,-20.05 -42.02,-35.74 -236.83,-202.97 -580.4,-409.48 -960.5,-451.6l-1.74 84.37z"/> <path class="fil1" d="M2073.11 6527.38l0 0zm-100.96 -908.6l0 0zm0 0c-29.1,-7.78 -40.47,-24.33 -62.12,-38.83 0,60.52 39.08,216.51 58.64,275.3 9.69,29.14 5.68,28.69 29.47,40.42 34.21,16.87 78.14,14.03 98.27,41.51 -42.48,3.53 -47.55,20.14 -85.42,23.3 4.42,53.12 96.21,155.7 116.49,194.2 22.15,9.46 17.28,-0.31 26.97,23.17 29.16,19.04 63.89,61.4 128.19,101.05 30.61,18.87 128.67,55.44 145.98,69.71 -39.14,2.07 -88.32,-11.44 -138.13,-10.04 -158.06,4.46 -241.29,47.51 -374.65,75.69l-10.32 -117.48c-26.96,11.13 -28.62,46.7 -54.87,62.8 -15.49,9.51 -77.47,17.6 -101.07,22.7 -277.63,59.98 -476.76,168.81 -545.81,185.45l-2.1 -60.98c-36.75,34.28 -59.12,58.82 -91.07,106.47 -114.81,171.24 54.98,44.19 -236.36,159.8 -43.69,17.34 -99.46,45.72 -139.22,56.67l0.71 -69.06c-40.74,16.9 -125.45,82.35 -153.54,108.59 -296.96,277.47 -272.29,375.29 -334.05,445.58 10.59,24.16 -9.45,11.19 79.85,-55.26 110.74,-82.41 106.22,-70.22 208.98,-132.71 40.9,-24.88 75.19,-34.81 114.99,-55.87 -10.91,46.82 -38.83,67.27 -38.83,132.02 127.02,-67.2 194.95,-84.51 302.33,-132.56 66.65,-29.82 75.6,-196.52 256.8,-317.86 -7.41,31.83 -23.98,51.69 -36.13,88.12 -12.74,38.21 -18.22,57.48 -18.22,106.03 25.69,-17.21 40.56,-50.67 63.96,-75.83 76.98,-82.74 135.37,-133.43 238.91,-188.22 -3.66,43.99 -56.43,123.61 -77.66,155.31 31.3,-2.61 69.81,-13.23 104.22,-20.03l501.31 -151.01c28.33,-15.8 42.09,-42.73 64.33,-67.69l60.12 -71.89c0,40.01 -7.77,72.42 -7.77,124.24 91.02,-48.15 52.85,-38.81 174.13,-89.91 33.17,-13.97 167.93,-63.98 198.63,-53.42l23.29 -13.95c2.48,-76.78 29.74,-127.96 81.64,-172.5l45.96 -30.06c0.57,-2.04 2.72,-1.92 3.9,-3.07 -62.42,-62.09 -158.94,-180.93 -210.06,-257.33 -62.13,-92.86 -109.68,-184.47 -160.6,-297.8 -126.93,-282.49 -125.35,-501.82 -117.46,-785.93l9.43 -51.08c-94.46,53.21 -211.62,411.93 -212.22,536.02 -0.31,65.37 64.29,160.93 70.17,186.2z"/> <path class="fil6" d="M4155.08 4243.7l23.17 69.55c42.46,-132.67 117.39,-210.42 241.84,-255.94l11.64 -72.72c107.05,-20.78 108.08,-17.37 222.57,-16.16 66.65,-130.63 359.83,-324.81 509.52,-407.59 141.09,-78.02 88.16,-32.01 212.24,10.18l0.6 -137.67 90.11 103.83c95.2,-11.48 204.23,-37.2 302.98,-53.11 105.3,-16.98 213.13,-29.12 318.28,-47.09l42.76 -129.28c39.57,33.54 66.53,75.03 99.98,91.65l16.42 -88.72c150.56,-55.44 574.26,75.26 672.61,82.35l27.67 -72.41c81.15,113.11 -52.06,41.26 212.13,123.98 168.37,52.71 317.67,119.13 473.54,194.27 76.82,37.04 154.73,85.49 227.66,116.85 -46.77,-57.41 -307.17,-221.59 -358.5,-251.06 -62.84,-36.07 -125.53,-73.94 -195.77,-107.3 -68.99,-32.76 -141.96,-65.78 -211.56,-91.32 -332.58,-122.06 -619.01,-182.09 -1022.51,-164.87 -361.81,15.44 -862.3,178.96 -1148.83,357.99 -32.6,20.37 -63.64,35.41 -97.59,57.86l-170.02 132.63 -215.24 227.2 8.59 -60.85c0.46,-123.61 5.68,-179.8 -15.35,-302.97 -5.22,-30.53 -14.93,-61.89 -15.63,-93.09 -34.3,0.76 -75.77,12.78 -108.73,15.53 10.65,-39.87 73.97,-98.1 108.73,-116.49 0,-75.54 -15.6,-120.9 -15.54,-232.96 0.06,-82.84 0,-165.68 0,-248.51 -59.76,0 -113.28,27.23 -163.08,38.83 27.66,-41.29 59.67,-73.3 100.96,-100.95 -21.78,-93.5 -47.47,-112.26 -62.81,-247.82 -16.7,-147.58 0.69,-189.29 0.69,-304.47 -35.04,52.66 -55.85,190.05 -60.39,264.6 -8.06,132.4 11.81,178.6 44.24,287.52l-114.25 65.07 42.63 9.69c-30.47,211.1 12.55,396.6 21.65,601.05 -29.09,30.58 -58.9,42.27 -85.46,76.22l96.98 -8.9c32.4,68.97 63.94,415.93 63.46,507.34 -32.26,30.29 -135.33,102.44 -132.39,178.09z"/> <path class="fil3" d="M4837.03 4648.05c51.54,11.5 132.67,77.11 163.8,85.43 13.55,-20.23 59.85,-81.26 77.65,-93.19 -7.47,32.06 -10.46,62.87 -20.36,96.12 -10.98,36.81 -27.07,60.54 -33.99,90.26 70.37,33.76 101.92,36.47 189.77,89.8l246.28 173.06c46.49,37.44 175.18,168.85 208.5,218.62 35.61,-23.85 55.56,-64.15 139.78,-108.72 -6.84,25.64 -3.41,10.39 -16.41,30.18l-92.83 163.85c-30.6,59.09 10.13,70.68 67.09,213.11l38.51 116.81c10.15,37.75 -6.18,16.62 19.17,35.19 9.86,-42.34 89.53,-157.43 139.79,-170.85 0,71.96 -61.75,212.62 -102.25,278.28l-22 32.36 98.43 165.61c71.9,145.35 105.57,197.32 172.27,363.57l70.99 200.81c26.75,-17.91 47.17,-28.11 74.48,-49.78 26.94,-21.35 45.26,-40.32 73.07,-58.94 -1.12,50.35 -34.7,132.39 -58.74,174.23 -11.61,20.21 -21.03,29.82 -26.68,50.97 24.6,-11.81 54.99,-22.08 83.22,-33.26 31.06,-12.3 59.9,-30.17 87.62,-36.63 -17.29,74.22 -131.57,158.71 -155.31,194.15l84.53 241.63c26.31,89.08 39.72,171.45 39.72,286.44l16.66 -15.53c57.65,-162.76 81.79,-266.1 46.13,-460.01 -18.04,-98.1 -11.07,-64.35 31.41,-128.99 76.34,-116.19 152.54,-387.11 151.56,-559.75 -53.48,100.43 -131.91,229.52 -220.93,269.77 43.14,-122.37 122.45,-315.11 130.41,-457.79 -19.54,28.87 -33.33,67.03 -51.17,97.35 -35.43,60.22 -141.64,203.68 -191.67,230.34 -30.94,-114.95 -63.87,-204.27 -111.36,-306.47 -50.42,-108.48 -135.88,-226.11 -151.13,-260.91 61.76,-123.4 122.51,-257.34 150.56,-412.49 -47.04,6.91 -95.2,23.39 -135.65,38.57 -35.49,13.31 -90.74,41.42 -122.98,47.48 -12.5,-33.56 -18.98,-94.74 -33.21,-137.42 -42.2,-126.53 -97.09,-110.38 94.66,-311.85l-247.82 23.91c-50.36,-51.88 -80.88,-96.49 -132.69,-140.5 -115.46,-98.07 -338.3,-267.93 -482.35,-311.19l62.7 -130.14c-39.14,12.24 -93.92,51.14 -132.54,38.61 -50.31,-16.34 -77.6,-36.11 -140.77,-47.66 -25.19,105.44 -38.11,107.23 -75.9,185.56z"/> <path class="fil7" d="M566.54 4321.57c-19.42,13.51 -47.39,49.97 -54.35,75.74 59.87,-51.95 113.6,-104.87 189.07,-158.21 221.25,-156.36 467.97,-265.83 750.03,-310.94l-37.53 96.88c181.54,-2.05 310.44,4.35 488.5,20.39 30.31,-19.27 38.19,-38.18 66.69,-60.53 58.67,-46.01 167.94,-122.09 240.55,-134.2 -16.55,23.34 -25.78,49.06 -32.22,87.66 284.32,-10.85 562.2,-1.94 840.98,52.89 31.15,6.13 97.13,26.13 124.61,20.02 23.39,-5.2 68.63,-46.1 102.8,-58.63 -10.66,45.39 -48.72,123.41 -40.9,169.5 138.19,11.88 262,27.59 390.89,59.98 203.52,51.16 285.31,123.51 292.77,125.23 17.23,3.98 5.66,7.77 18.45,-3.7 -51.77,-41.83 -109.06,-101.56 -150.51,-158.51 -21.74,-29.86 -41.7,-60.32 -61.01,-94.08 -22.35,-39.08 -40.65,-92.89 -57.08,-107.74 -9.59,2.89 -143.53,-57.58 -171.21,-67.82 -458.68,-169.49 -1051.25,-232.59 -1534.08,-184.67 -359.87,35.72 -662.98,127.69 -954.15,297.4 -131.2,76.47 -178.04,121.54 -287.31,210.15 -47.83,38.79 -86.32,93.3 -125,123.19z"/> <path class="fil1" d="M3628.57 3902.53l9.71 40.78c16.43,14.86 34.72,68.66 57.08,107.74 19.31,33.76 39.28,64.22 61.01,94.08 41.45,56.96 98.74,116.68 150.51,158.51 31,20.86 57.68,41.5 92.18,63.12 65.43,-16.97 72.08,-35.52 161.76,-37.62 -11.28,-37.06 -30.61,-72.79 -43.6,-109.98 -96.43,-275.78 -159.19,-605.09 -145.62,-899.37 8.88,-192.48 28.52,-349.65 73.97,-527.78 29.93,-117.28 104.87,-345.49 163.68,-429.3 16.48,-49.72 47.97,-101.98 77.11,-131.78 -71.62,-28.7 -348.9,268.9 -402.81,336.87 -82.97,104.61 -186.9,225.42 -187.75,371.59 -0.39,65.96 14.64,122.04 15.9,178.78 -30.5,-20.43 -52.35,-66.74 -62.12,-108.73 -20.66,15.13 -19.03,34.72 -25.32,67.87 -15.88,83.61 -49.94,258.06 -52.99,336.11 -2.34,59.57 -4.14,50.79 80.6,121.81 25.51,21.37 32.8,20.13 52.06,48.9l-139.78 -7.77c0,112.09 32.69,241.49 64.43,326.17z"/> <path class="fil5" d="M3893.44 7772.32c16.13,26.29 55.02,48.39 84.99,58.48 3.99,-10.44 -1.04,-13.32 -19.29,-36.03 -112.77,-140.32 -212.37,-334.84 -259.11,-510.04 -24.33,-91.22 -14.15,-116.07 -53.56,-156.14 -138.05,-140.4 -373.22,-584.62 -409.3,-774.34 33.74,22.25 155.79,163.2 254.56,202.96 -42.04,-93.61 -72.81,-106.76 -126.03,-266.24 -34.06,-102.06 -55.57,-208.35 -64.5,-322.44 -25.89,-330.48 35.55,-429.49 90.22,-686.22l20.37 23.03c51.06,70.25 169.7,236.32 235.49,265.85 -68.85,-263.99 -97.49,-478.41 -93.26,-770.84 53.04,30.92 93.98,82 143.04,105.83 16.61,-113.11 71.3,-206.11 154.68,-277.17l11 -82.14c-53.44,11.94 -151.76,77.68 -192.63,106.38 -174.56,122.59 -296.37,299.98 -389.05,495.67 -134.44,283.9 -182.17,664.31 -153.09,1022.65 42.48,523.54 212.26,905.9 484.72,1293.59 53.57,76.23 228.07,268.02 295.19,303.73l-14.44 3.42z"/> <path class="fil0" d="M3976.03 7768.31c16.21,-24.32 97.11,-57.09 124.24,-67.32 -10.71,21.31 -83.62,123.24 -100.68,132.94l-0.9 15.21c43.9,34.43 129.78,211.97 158.81,282.63 44.54,108.47 75.09,227.44 86.43,359.75l130.93 -11.17c-34.32,15.02 -61.19,43.84 -98.55,56.06 9.81,42.45 37.27,101.39 51.8,146.86 60.95,190.83 64.48,302.57 82.69,498.94l112.06 -8.15c-23.8,28.11 -55.33,38.07 -78.34,63.57 18.37,139.61 30.19,234.94 2.97,378.98l24.61 39.79c19.47,-1.22 47.13,1.6 63.46,-9.91 10.26,-25.52 15.56,-44.91 29.94,-67.76 23.65,-37.54 23.91,-42.69 47.17,-56.65l-9.7 35.41 88.75 -124.03c-22.59,-14.57 -19.79,-34.09 -26.43,-62.3 -14.26,-60.53 -57.98,-161.93 -60.75,-195.67 43.32,-35.82 38.84,-21.52 35.85,-92.41 -7.07,-167.57 -64.55,-355.69 -125.24,-509.3 -84.96,-215.04 -22.37,-70.76 -17.82,-167.18 6.24,-132.25 -129.49,-428.91 -214.12,-555.98l-109.72 -144.42 32.5 -37.28c-39.3,-121.34 -282.33,-422.2 -383.11,-522.77 -30.41,-30.34 -125.29,-121.86 -167.69,-138.38 74.46,148.25 134.69,114.47 164.42,250.69 23.43,107.36 117.47,456.04 156.42,509.82z"/> <path class="fil8" d="M2904.05 8088.3l-7.76 -7.77 7.76 7.77zm-7.76 -7.77l0 0zm-124.26 -341.69l-7.77 -7.77 7.77 7.77zm-7.77 -7.77l0 0zm636.8 877.61l38.83 7.69 -294.83 -365.26c-29.63,-34.51 -178.09,-68.84 -241.02,-162.81 56.02,13.04 70.93,38.84 170.85,62.12 -31.59,-47.19 -113.22,-132.46 -160.88,-196.34 -29.72,-39.83 -132.33,-173.8 -141.99,-215.24 21.09,14.11 40.68,31.27 61.05,47.67 27.98,22.53 39.1,28.66 70.96,45.52 0,-58.33 -6.37,-199.49 -50.59,-236.74 -74.48,-62.76 -84.41,-66.91 -153.18,-141.92 -32.39,-35.32 -65.18,-63.76 -91.33,-102.82 40.11,10.71 57.45,57.95 108.72,69.89 -6.53,-78.48 -116.45,-306.93 -173.85,-393.05 -13.47,-20.2 -24.44,-32.61 -35.83,-49.6 31.04,2.59 33.99,11.44 59.92,41.04 1.49,1.71 5.75,6.75 7.15,8.39l10.59 12.7c0,-56.59 -15.14,-113.83 -15.84,-170.54 -0.85,-68.63 4.52,-130.97 7.54,-186.69 -16.73,-20.6 -10.7,-9.58 -29.63,-24.23 -13.15,-10.19 -19.52,-17.4 -27.97,-26.42 -20.36,-21.76 -26.33,-37.71 -43.73,-57.3 -35.43,53.56 -38.61,142.69 -26.29,215.24l-116.97 -30.31c43.03,156.61 184.94,370.44 262.14,473.34 -113.52,-28.95 -178.35,-90.61 -237.74,-115.3 2.93,214.85 114.15,513.77 251.8,660.08 28.91,30.72 117.87,120.12 152.1,136 -64.2,1.42 -167.71,-42.56 -219.22,-63.2 24.22,35.1 66.56,75.9 96.94,106.89 91.95,93.81 224.07,206.1 339.38,266.56 91.75,48.1 49.7,26.94 109.38,100.05 67.57,82.77 231.63,250.33 333.15,276.07 -12.02,12.06 17.72,13.28 -19.63,8.51z"/> <path class="fil5" d="M4868.66 7668.95c6,-8.49 0.06,3.26 8.59,-14.93 6.19,-13.19 2.93,-4.16 6.83,-16.61 5.57,-17.75 6.67,-17.42 5.11,-38.35 88.78,-459.57 -57.65,-746.47 -281.64,-989.11 -83.94,-90.93 -238.61,-209.02 -377.18,-282.78 -130.33,-69.39 -311.63,-163.01 -473.61,-196.03 11.77,34.55 39.46,62.81 41.39,93.48 3.58,56.69 -61.37,163.06 84.39,77.59 27.19,-15.95 57.04,-31.98 84.52,-44.36 -18.31,63.87 -61.09,136.07 -17.67,179.37 25.76,25.67 31.85,31.85 54.66,61.93 12.86,16.96 36.64,54.57 48.62,65.24 19.42,-22.26 109.98,-118.77 143.75,-119.38 18.38,121.32 12.35,188.84 12.04,307.17 89.92,35.16 226.96,175.56 291.15,253.03 5.04,6.09 15.31,18.35 17.92,21.02 15.96,16.35 -1.15,3.93 18.64,15.87 10.77,-42.97 31.34,-85.62 43.81,-136.31 13.04,-53.02 12.14,-96.25 22.07,-148.1 -3.15,24.8 20.17,121.51 24.86,158.76 7.7,61.14 9.97,116.45 10.06,178.73 48.28,-46.24 64.56,-144.81 70.37,-228.16 56.79,100.95 66.93,299.37 46.21,424.46 -6.99,42.15 15.51,55 33.54,86.35 53.9,93.73 81.81,175.51 81.59,291.11z"/> <path class="fil9" d="M4178.91 9875.19c13,1.81 23.81,2.48 36.95,6.96 20.13,6.87 -0.48,-1.17 17.66,8.15l10.97 7.42c-12.8,7.79 -66.2,35.88 -80.83,38.48l-30.01 26.39c-10.65,6.76 -20.99,13 -33.66,17.77 -1.34,1.52 -3.5,1.72 -4.18,4.43l-73.54 60.42c-16.79,13 -20.92,18.66 -36.95,32.94 -76.65,68.28 -108.36,92.04 -181.67,183.32 -129.37,161.07 -98.13,219.26 14.87,313.75 15.91,13.3 27.19,22.85 48.5,31.06 64.63,20.83 125.56,60.09 204.42,79.86 -7.36,-7.58 -5.06,-5.69 -15.45,-12.78 -31.31,-21.38 -299.84,-144.43 -270.1,-242.32 38.38,-126.35 349.6,-407.75 455.35,-453.04 -22.67,118.8 -193.63,411.53 -190.66,511.81 10.84,-37.28 217.12,-220.64 283.32,-255.75 20.51,30.42 54.57,256.31 54.38,308.33 -0.46,129.3 -43.9,157.88 -197.1,169.82 90.64,52.02 247.23,1.29 335.1,-30.98 115.17,-42.28 165.76,-74.75 193.85,-201.81 24.96,-112.87 18.89,-240.08 -31.27,-331.82 -35.83,-65.54 -141.4,-166.73 -210.42,-193.7 -23.2,-7.76 -23.01,-9.14 -35.38,-28.61 -50.6,-11.96 -103.34,-26.87 -161.1,-26.59 -42.78,-3.88 -18.44,0.32 -46.95,-27.17 -11.57,-11.15 -25.35,-21.35 -41.62,-29.09l-14.46 32.73z"/> <path class="fil6" d="M271.44 7229.08c-12.69,21 -21.1,54.81 -23.3,85.74 61.76,-70.3 37.09,-168.11 334.05,-445.58 28.09,-26.24 112.79,-91.69 153.54,-108.59l-0.71 69.06c39.76,-10.95 95.53,-39.33 139.22,-56.67 291.34,-115.61 121.55,11.44 236.36,-159.8 31.95,-47.65 54.32,-72.19 91.07,-106.47l2.1 60.98c69.05,-16.64 268.18,-125.47 545.81,-185.45 23.6,-5.1 85.57,-13.19 101.07,-22.7 26.25,-16.11 27.91,-51.67 54.87,-62.8l10.32 117.48c133.35,-28.18 216.59,-71.23 374.65,-75.69 49.81,-1.4 99,12.11 138.13,10.04 -17.32,-14.26 -115.38,-50.83 -145.98,-69.71 -64.3,-39.65 -99.03,-82.01 -128.19,-101.05 -19.26,13.61 -136.96,5.8 -174.69,7.67 -56.33,2.79 -114.25,9.8 -168.93,17.73 -300.65,43.55 -558.61,136.8 -824.78,268.75 -40.34,20 -75.38,42.02 -118.04,67.92l-214.46 159.08c-21.7,15.59 -35.56,19.64 -51.57,42.53 -24.74,35.38 -3.89,18.73 -41.81,43.61 -35.33,23.19 -43.17,49.59 -65.47,74.81l-96.45 129c-95.15,144.78 -81.66,162.38 -126.8,240.13z"/> <path class="fil10" d="M3323.41 8585.35c16.3,20.63 -18.28,8.12 33.76,21.11 14.05,3.5 29,2.17 43.89,2.22 37.35,4.77 7.61,3.55 19.63,-8.51 -101.52,-25.74 -265.57,-193.31 -333.15,-276.07 -59.68,-73.11 -17.63,-51.95 -109.38,-100.05 -115.31,-60.45 -247.43,-172.75 -339.38,-266.56 -30.39,-30.99 -72.72,-71.79 -96.94,-106.89 51.51,20.65 155.02,64.63 219.22,63.2 -34.23,-15.89 -123.19,-105.28 -152.1,-136 -137.65,-146.31 -248.87,-445.23 -251.8,-660.08 59.38,24.68 124.22,86.35 237.74,115.3 -77.2,-102.91 -219.11,-316.73 -262.14,-473.34l116.97 30.31c-12.32,-72.56 -9.15,-161.69 26.29,-215.24l-13.2 -59.74c-143.39,127.26 -229.2,376.66 -214.13,641.44 25.87,454.67 303.96,909.78 632.17,1172.52 127.17,101.79 314.19,222.83 471.27,260.37l-28.73 -3.98z"/> <path class="fil11" d="M4510.47 9920.45c35.16,-53.17 260.8,-253.84 309.47,-271.87 -9.85,50.52 -27.4,96.73 -28.16,154.1 46.39,-14.86 98.18,-39.26 154.68,-38.68 64.19,108.74 98.78,449.49 24.81,585.64l-19.84 24.46c-55.57,-196.14 -243.77,-401.78 -440.96,-453.65zm209.02 -310.03c-52.07,35.93 -103.98,82.2 -144.96,132.68 -13.41,16.52 -26.13,36.4 -43.69,46.7 -4.89,24.62 -70.94,118.15 -87.79,135.51 12.37,19.47 12.17,20.85 35.38,28.61 12.53,-7.51 -3.98,-4.57 14.8,-3.75 65.22,2.81 309.83,194.73 370.04,333.7 9.61,22.17 5.99,18.74 17.57,36.65 7.93,12.26 16.13,18.44 19.35,35.6 24.67,165.35 12.11,219.29 211.56,118.72 60.22,-30.37 94.35,-60.07 129.76,-111.08 115.43,-166.33 89.13,-490.35 -172.95,-650.17 -50.03,-30.51 -101.31,-57.46 -158.87,-82.02 -81.17,-34.61 -99.33,-46.45 -190.2,-21.15z"/> <path class="fil7" d="M4209.25 2362.73c8.73,6.7 11.08,-2.7 -7.5,40.85 -182.35,427.22 -227.58,932.71 -156.52,1390.53 12.54,80.76 78.53,410.24 109.85,449.59 -2.94,-75.64 100.13,-147.8 132.39,-178.09 0.48,-91.41 -31.06,-438.37 -63.46,-507.34l-96.98 8.9c26.56,-33.95 56.37,-45.64 85.46,-76.22 -9.1,-204.45 -52.12,-389.95 -21.65,-601.05l-42.63 -9.69 114.25 -65.07c-32.43,-108.92 -52.31,-155.12 -44.24,-287.52 4.54,-74.55 25.35,-211.94 60.39,-264.6 1.02,-1.43 2.93,-5.11 3.15,-4.22 0.24,0.96 2.28,-3.77 2.55,-5.06 2.31,-11.3 2.06,-10.44 2.06,-22.8 -29.14,29.8 -60.63,82.06 -77.11,131.78z"/> <path class="fil4" d="M4309.96 9455.08c18.76,35.34 83.1,72.95 106.03,127.61 27.6,16.14 10.51,10.18 31.49,33.94 27.21,-144.05 15.4,-239.37 -2.97,-378.98 23,-25.5 54.54,-35.45 78.34,-63.57l-112.06 8.15c-18.21,-196.37 -21.74,-308.11 -82.69,-498.94 -14.53,-45.47 -41.99,-104.41 -51.8,-146.86 37.36,-12.22 64.22,-41.05 98.55,-56.06l-130.93 11.17c-11.34,-132.31 -41.89,-251.28 -86.43,-359.75 -29.02,-70.67 -114.91,-248.2 -158.81,-282.63l-20.26 -18.33c-29.97,-10.1 -68.85,-32.2 -84.99,-58.48l-40.53 -22.3c-28.36,-15.02 -43.54,-29.84 -66.49,-47.26 -25.67,-19.49 -31.6,-33.29 -59.19,-48.97l108.72 255.9c20.43,-10.81 44.66,-28.96 69.89,-31.06l65.46 151.98c77.09,184.43 120.92,332.73 120.92,554.7 22.85,-5.32 23.7,-7.76 54.35,-7.76 2.12,25.4 9.7,46.59 16.47,68.96l49.02 230.56c18.31,100.49 27.7,232 27.7,345.05l77.47 9.2 -7.27 223.77z"/> <path class="fil12" d="M5211.27 9541.94l36.92 -40.27c5.57,-98.07 -6.62,-177.57 -6.62,-264.03 43.4,-3.61 90.73,-19.87 132.02,-23.3l41.03 -230.77c12.33,-73.8 21.94,-154.78 33.41,-238.41 10.47,-76.45 38.26,-425.56 18.76,-509.32 19.69,-9.45 45.57,-16.58 68.85,-24.33 17.94,-5.98 54.72,-14.47 70.94,-22.26 51.85,-222.56 19.91,-628.78 -30.33,-878.26l-70.63 -255.55c16.13,-7.74 87.5,-26.12 108.73,-31.07 -1.12,-49.93 -17.12,-138.55 -26.57,-190.87 -48.15,-266.62 -109.27,-441.51 -209.68,-683.38l-155.32 -295.1c-15.2,-24.7 -26.49,-42.76 -41.72,-67 -15.72,-25.04 -32.09,-44.24 -48.2,-68.3 47.09,-10.97 66.53,-42.72 116.49,-54.35 -0.85,-38.53 -17.22,-57.93 -31.06,-85.43l-135.09 -237.68 -206.61 -289.04c-34.97,-17.56 -49.12,-53.06 -77.33,-79.28 -26.6,-24.72 -47.9,-59.46 -67.38,-76.3l152.48 38.54c-25.78,-24.3 -152.2,-57.22 -182.51,-62.91l135.83 186.33c100.46,140.37 284.8,460.2 319.48,621.43l-69.54 39.01c17.75,36.38 62.13,92.57 87.39,136.23 178.62,308.78 343.65,826.78 354.39,1166.37l-67.2 34.06c97.29,297.37 133.35,589.2 84.15,910.73 -38.22,249.81 -37.01,191.18 -104.85,237.38 -9.15,86.57 -0.26,208.62 -5.21,302.78 -9.93,188.98 -32.07,357.64 -83.72,538.47 -11.06,38.74 -26.96,79.71 -40.68,114.59 -27.36,69.5 -31.22,37.36 -89.49,65.53 0.14,55.85 -1.98,111.02 -6.3,166.7 -2.02,26.04 -4.08,51.35 -7.5,77.54 -3.35,25.63 -11.03,53.18 2.68,71.52z"/> <path class="fil1" d="M4132.82 4933.64c-11.41,24.5 -43.12,19.61 -73.47,23.83 -26.99,3.76 -52.91,8.38 -79.18,13.47 -50.99,9.87 -100.05,25.92 -146.01,34.25 -39.29,91.06 -69.54,196.31 -96.1,300.63 -20.11,-53.45 -21.63,-107.7 -75.27,-129.65 21.67,108.86 42.14,182.85 48.55,302.81 67.88,-34.96 38.9,-47.24 8.13,-93.19 58.01,13.51 108.53,29.61 155.31,54.35 -2.72,-32.57 -41.17,-138.16 -54.36,-163.08 101.06,26.98 150.55,126.68 234.02,102.47 65.54,-19.02 377.92,-125.09 422.77,-156.83 -16.48,-49.31 -47.43,-110.21 -71.37,-158.4 -17.07,-34.35 -74.7,-129.63 -80.69,-154.75 -70.63,1.41 -114.54,26.36 -192.33,24.07z"/> <path class="fil13" d="M4071.43 10686.15c41.82,4.39 69.74,27.03 119.74,26.08 153.2,-11.94 196.65,-40.52 197.1,-169.82 0.19,-52.03 -33.87,-277.92 -54.38,-308.33 -66.2,35.11 -272.48,218.47 -283.32,255.75 -2.96,-100.29 167.99,-393.02 190.66,-511.81 -105.76,45.29 -416.98,326.69 -455.35,453.04 -29.74,97.9 238.79,220.94 270.1,242.32 10.39,7.09 8.09,5.2 15.45,12.78z"/> <path class="fil2" d="M2469.17 5688.67l0 0zm93.31 539.87c4,5.83 12.99,16.81 18.72,23.07 13.66,14.91 4.85,8.26 21.65,20.61 -0.55,-49.31 4.62,-93.94 21.34,-133.55 19.37,-45.9 42.65,-61.94 64.59,-94.87l-4.99 -55.28c25.7,-12.69 45.92,-32.39 79.44,-44.53 49.24,-17.83 48.1,-0.97 65.56,-50.99 37.57,-107.6 95.48,-216 162.32,-303.63 20.85,-27.33 30.19,-40.37 50.43,-66.12 46.26,-58.85 46.46,-58.98 56.82,-42.7 7.4,-15.37 64.47,-217.4 68.06,-239.77 -94.53,69.4 -225.69,203.56 -296.96,304.46 -192.88,273.07 -128.13,248.73 -202.35,398.94l-9.44 -38.07c-18.26,-50.25 -34.06,-89.31 -56.37,-132.11 -21.44,-41.13 -48.73,-76.19 -70,-116.39 -22.17,11.73 -34.65,24.66 -62.13,31.06 2.96,-132.4 76.43,-11.2 -18.12,-199.32 -28.21,-56.13 -68.13,-141.41 -82.83,-204.5 -65.12,34.46 -45.67,30.3 -93.19,62.12 2.93,-35.09 17.78,-60.31 31.07,-85.42 -15.44,-23.05 -39.47,-48.52 -58.87,-73.16 -43.13,-54.76 -68.07,-105.12 -93.2,-170.83 -9.19,-24.01 -21.71,-79.81 -37.02,-97.7 3.81,74.07 17.27,146.93 41.59,209.66 37.87,97.6 61.13,101.89 94.67,155.33 -11.14,18.62 -31.6,47.8 -50.83,58.07l61.35 108.53c18.84,43.98 35.95,82.31 56.33,122.6 123.54,244.19 83.78,117.41 51.42,230.89 26.67,-8.04 35.43,-17.64 58.82,-28.05 32.77,22.06 126.96,206.67 158.14,266.39 14.48,27.75 22.74,33.66 12.91,56.92 -24.11,57.04 -27.13,52.94 -38.91,128.34z"/> <path class="fil14" d="M4914.67 4378.12c380.09,42.12 723.67,248.63 960.5,451.6 18.31,15.69 23.77,16.84 42.02,35.74 68.33,70.79 109.93,88.51 199.49,196.65 124.22,149.98 152.24,166.58 284.28,352.28 342.54,481.74 484.81,1145.13 179.73,1699.07l-121.65 198.26c66.28,-38.69 191.08,-282.5 229.16,-370.57 20.11,-46.51 39.21,-99.78 52.26,-149.65 24.74,-94.57 54.94,-223.67 54.45,-341.6 -0.39,-97.07 -1.59,-316.51 -31.25,-371.44 -45.44,-86.26 -29.07,-230.41 -272.15,-630.06 -67.06,-110.25 -117.03,-166.37 -188.92,-261.48 -66.6,-88.11 -138.05,-154.16 -211.54,-231.2 -137.48,-144.12 -301.44,-277.93 -505.65,-395.31 -120.21,-69.1 -507.31,-232.83 -675.78,-211.2l5.04 28.9z"/> <path class="fil15" d="M4449.37 3855.94l-8.59 60.85 215.24 -227.2 170.02 -132.63c33.95,-22.45 64.99,-37.48 97.59,-57.86 286.52,-179.03 787.01,-342.55 1148.83,-357.99 403.5,-17.22 689.93,42.81 1022.51,164.87 69.6,25.54 142.57,58.56 211.56,91.32 70.24,33.36 132.93,71.23 195.77,107.3 51.33,29.47 311.74,193.65 358.5,251.06 33.41,24.36 55.41,46.26 91.04,71.36 -32.38,-56.97 -280.29,-246.23 -338.57,-284.84 -173.24,-114.77 -213.59,-136.76 -399.19,-229.85 -468.75,-235.12 -1032.45,-296.67 -1581.16,-160.02 -86.06,21.43 -155.26,45.84 -238.91,71.72 -174.92,54.13 -478.58,204.83 -625.15,322.28 -100.57,80.59 -68.24,46.14 -165.97,144.67l-77.74 77.57c-21.84,23.14 -55.02,72.27 -75.77,87.39z"/> <path class="fil16" d="M4510.47 9920.45c197.19,51.87 385.39,257.51 440.96,453.65l19.84 -24.46c73.96,-136.15 39.37,-476.9 -24.81,-585.64 -56.5,-0.58 -108.3,23.82 -154.68,38.68 0.76,-57.37 18.31,-103.58 28.16,-154.1 -48.67,18.03 -274.31,218.7 -309.47,271.87z"/> <path class="fil15" d="M566.54 4321.57c38.68,-29.89 77.17,-84.4 125,-123.19 109.28,-88.61 156.11,-133.69 287.31,-210.15 291.16,-169.71 594.28,-261.69 954.15,-297.4 482.83,-47.93 1075.4,15.17 1534.08,184.67 27.68,10.24 161.61,70.71 171.21,67.82l-9.71 -40.78c-30.32,-13.65 -58.54,-23.95 -87.72,-38.83 -78.17,-39.85 -282.81,-111.05 -371.07,-133.7l-315.59 -64.94c-621.93,-117.6 -1342.9,-49.83 -1885.35,290.31 -66.12,41.46 -379.5,282.5 -402.3,366.2z"/> <path class="fil17" d="M4719.48 9610.42c90.88,-25.3 109.04,-13.46 190.2,21.15 57.56,24.56 108.84,51.51 158.87,82.02 262.09,159.81 288.39,483.83 172.95,650.17 -35.41,51.01 -69.54,80.71 -129.76,111.08 -199.45,100.57 -186.88,46.63 -211.56,-118.72 -13.6,30.99 -3.72,82.44 -11.01,120.08 -6.92,35.7 -24.57,78.26 -23.81,104.92 100.2,31.87 440.26,-34.81 521.77,-149.52 80.23,-112.9 96.76,-259.09 35.4,-404.23 -20.16,-47.7 -43.27,-73.36 -64.5,-114.42l-32.07 -38.13c-18.51,-13.08 -31.68,-32.25 -50.57,-49.69 -19.55,-18.04 -31.57,-26.78 -54.29,-46.68 -32.93,-28.82 -81.36,-53.46 -112.58,-82.88l-13.75 -8.5c-37.33,-12.82 -75.96,-36.73 -116.37,-54.37l-118.38 -50.29c-40.28,6.05 -40.32,-8.57 -82.52,-1.88 -12.92,2.05 -28.82,7.72 -35.76,11.41 -18.14,9.63 -9.38,2.63 -22.28,18.48z"/> <path class="fil18" d="M4262.69 4306.35c7.9,-220.74 322.32,-364.97 505.13,-147.5 161.1,191.65 -0.95,496.8 -266.94,460.79 -10.85,-36.11 -4.38,-74.92 -19.59,-119.85 -12.43,-36.71 -29.44,-63.57 -50.26,-89.43 -20.02,-24.89 -43.9,-46.13 -75.17,-64.83 -27.44,-16.41 -63.54,-22.93 -93.17,-39.19zm157.41 -249.04c-124.45,45.52 -199.39,123.28 -241.84,255.94l-2.39 14.06c125.18,-5.63 239.35,108.95 268.46,202.71 41.35,133.15 -1.82,174.75 -12.06,244.01 65.1,6.32 87.83,21.85 172.5,10.66 21.91,-8.26 47.84,-10.89 69.91,-20.12 17.48,-7.31 45.13,-21.72 61.89,-31.31 47.26,-27 61.7,-57.61 100.46,-85.21 37.79,-78.33 50.7,-80.12 75.9,-185.56l1.74 -84.37 -5.04 -28.9 -2.3 -19.56c-2.56,-38.3 -37.37,-103.11 -55.33,-130.75 -17.56,-27 -66.52,-76.77 -91.91,-95.07 -50.65,-23.78 -86.22,-49.3 -155.11,-61.85 -60.52,-11.02 -132.69,-7.26 -184.87,15.33z"/> <path class="fil7" d="M2104.78 4947.64c17.13,48.03 -63.09,569.9 360.31,1156.74l97.39 124.16c11.78,-75.4 14.8,-71.3 38.91,-128.34 9.83,-23.26 1.57,-29.17 -12.91,-56.92 -31.18,-59.72 -125.37,-244.33 -158.14,-266.39 -23.39,10.41 -32.16,20 -58.82,28.05 32.36,-113.48 72.12,13.3 -51.42,-230.89 -20.37,-40.29 -37.49,-78.62 -56.33,-122.6l-61.35 -108.53c19.24,-10.28 39.7,-39.45 50.83,-58.07 -33.54,-53.44 -56.8,-57.73 -94.67,-155.33 -24.32,-62.73 -37.79,-135.58 -41.59,-209.66l-2.8 -23.3 -9.43 51.08z"/> <path class="fil19" d="M4531.22 4079.79c214.58,-46.6 342.09,274.17 125.79,317.52 -220.8,44.25 -357.19,-267.27 -125.79,-317.52zm-268.53 226.56c29.63,16.26 65.73,22.78 93.17,39.19 31.28,18.7 55.15,39.94 75.17,64.83 20.82,25.86 37.83,52.72 50.26,89.43 15.21,44.93 8.74,83.74 19.59,119.85 265.99,36 428.04,-269.14 266.94,-460.79 -182.81,-217.47 -497.24,-73.24 -505.13,147.5z"/> <path class="fil20" d="M4191.17 10712.23c-50,0.95 -77.92,-21.69 -119.74,-26.08 -78.86,-19.78 -139.8,-59.03 -204.42,-79.86 27.8,31.79 168.44,91.03 222.2,109.87 221.78,77.71 481.7,60.29 691.86,-44.15 21.67,-10.77 31.94,-20.28 45.87,-39.51 5.04,-6.96 9.52,-15.44 14.95,-23.62 8.03,-12.1 2.31,-4.9 10.17,-14.31 10.74,-12.86 -1.48,-1.83 13.33,-13.44 -0.76,-26.67 16.89,-69.22 23.81,-104.92 7.28,-37.65 -2.59,-89.09 11.01,-120.08 -3.22,-17.15 -11.43,-23.33 -19.35,-35.6 -11.57,-17.91 -7.95,-14.48 -17.57,-36.65 -60.21,-138.97 -304.83,-330.89 -370.04,-333.7 -18.78,-0.82 -2.27,-3.76 -14.8,3.75 69.02,26.96 174.59,128.16 210.42,193.7 50.16,91.74 56.22,218.95 31.27,331.82 -28.09,127.06 -78.68,159.53 -193.85,201.81 -87.87,32.27 -244.46,82.99 -335.1,30.98z"/> <path class="fil12" d="M3655.19 7007.8c42.4,16.52 137.29,108.04 167.69,138.38 100.78,100.57 343.81,401.43 383.11,522.77l-32.5 37.28 109.72 144.42c84.63,127.07 220.36,423.74 214.12,555.98 -4.55,96.42 -67.14,-47.86 17.82,167.18 60.69,153.61 118.17,341.73 125.24,509.3 2.99,70.89 7.46,56.59 -35.85,92.41 2.77,33.74 46.49,135.14 60.75,195.67 6.64,28.2 3.83,47.73 26.43,62.3l16.67 -40.52 -88.08 -217.44c40.31,-9.39 42.08,-29.32 77.66,-38.83 -27.81,-119.37 -51.39,-235.41 -86.38,-348.51 -17.08,-55.2 -33.43,-112.23 -52.41,-165.02l-63.13 -154.33c25.33,-16.95 52.34,-45.16 77.66,-62.12 -15.25,-65.48 -42.22,-143.84 -67.63,-204.17 -162.94,-386.98 -254.28,-414.17 -305.13,-510.28 21.54,-5.76 48.86,-28.48 62.12,-46.59 -51.69,-97.69 -159.47,-258.35 -238.78,-343.66 -60.58,-65.16 -125.61,-148.89 -207.14,-212.22l-95.47 -75.38c-29.19,-21.91 -69.31,-59.18 -105.17,-67.67 12.4,29.03 22.29,43.29 38.68,61.07z"/> <path class="fil21" d="M2438.1 6508.29c-88.74,85.75 -125.28,141.72 -176.02,254.65 -150.87,335.79 -19.11,752.95 129.32,1038.13 60.05,115.37 177.88,283.06 269.96,374.61 115,114.32 205.98,209.12 351.72,292.84 45.95,26.4 251.31,138.82 310.33,116.83l28.73 3.98c-157.08,-37.54 -344.1,-158.58 -471.27,-260.37 -328.21,-262.74 -606.29,-717.85 -632.17,-1172.52 -15.07,-264.78 70.74,-514.18 214.13,-641.44l-1.44 -20.67 -23.29 13.95z"/> <path class="fil22" d="M3843.71 4525.38c-26.01,-3.3 -11.46,-3.23 -7.8,6.18 -20.95,27.13 -61.74,36.56 -88.37,51.14 -134.18,73.43 -239.25,170.18 -332.54,289.22 -462.95,590.79 -381.23,1536.31 -82.54,2189.36l170.89 320.29c16.98,1.38 2.7,-8.18 40.81,43.48 14.09,19.11 27.4,36.08 40.72,52.6 30.59,37.93 51.44,58.89 85.19,93.08 32.31,32.73 51.77,53.73 87.43,91.09 21.59,22.61 76.3,55.54 95.42,88.2l40.53 22.3 14.44 -3.42c-67.11,-35.7 -241.61,-227.5 -295.19,-303.73 -272.45,-387.69 -442.24,-770.05 -484.72,-1293.59 -29.07,-358.34 18.65,-738.75 153.09,-1022.65 92.68,-195.68 214.48,-373.07 389.05,-495.67 40.86,-28.7 139.19,-94.44 192.63,-106.38l11.87 -28.68 -30.89 7.17z"/> <path class="fil23" d="M4070.07 4365.83c312.26,-75.46 427.22,398.39 116.04,476.9 -151.5,38.23 -269.83,-62.64 -299.38,-175.87 -40.16,-153.86 62.93,-271.94 183.33,-301.03zm-71 0.94c-15.51,20.48 -52.2,44.36 -73.85,67.47 -16.69,17.83 -37.71,53.64 -50.6,83.96l-11.87 28.68 -11 82.14c3.12,54.98 11.68,96.08 34.58,139.24 10.7,20.18 20.25,35.38 32.69,52.84 15.95,22.4 25.74,27.41 40.5,43.5 26.9,13.48 41.33,28.32 75.17,43.07 36.2,15.77 58.23,18.31 98.15,25.96 77.8,2.3 121.7,-22.65 192.33,-24.07l-9.03 -17.61c31.29,-28.68 62.21,-50.53 84.3,-83.25 15.37,-22.76 9.17,-20.25 31.84,-34.69 10.24,-69.26 53.41,-110.86 12.06,-244.01 -29.11,-93.76 -143.28,-208.34 -268.46,-202.71l-15.04 1.84c-89.68,2.1 -96.33,20.65 -161.76,37.62z"/> <path class="fil24" d="M4057.8 4390.36c97.85,-21.17 186.5,40.41 199.59,125.83 15.75,102.84 -63.85,180.13 -147.06,196.56 -227.96,45.03 -296.39,-269.65 -52.53,-322.39zm12.26 -24.54c-120.41,29.09 -223.49,147.17 -183.33,301.03 29.54,113.23 147.88,214.1 299.38,175.87 311.18,-78.52 196.21,-552.36 -116.04,-476.9z"/> <path class="fil25" d="M4057.8 4390.36c-243.86,52.74 -175.43,367.42 52.53,322.39 83.21,-16.43 162.81,-93.72 147.06,-196.56 -13.09,-85.43 -101.74,-147 -199.59,-125.83z"/> <path class="fil26" d="M4531.22 4079.79c-231.4,50.25 -95.02,361.76 125.79,317.52 216.3,-43.35 88.8,-364.12 -125.79,-317.52z"/> <path class="fil14" d="M3673.22 4609.22c-34.66,29.85 -81.07,61.11 -118.94,91.04 -229.3,181.12 -376.55,500.67 -445.46,789.92 -6.59,27.63 -12.17,54.86 -17.04,84.05 -4.57,27.41 -4.57,62.32 -20.91,84.57l-15.52 200.72 -3.73 186.38c10.46,0 8.38,-2.48 5.85,7.77l33.25 333.93c4.71,10.25 21.61,99.17 23.44,116.48l80.2 269.42c15.67,50.54 35.09,103.1 55.96,153.3 20.91,50.33 49.5,103.46 65.46,151.95 10.54,20.29 20.73,41.51 30.92,62.14 5.3,10.7 9.83,21.46 15.18,31.59 14.91,28.3 0.5,15.94 23.67,28.15l117.81 180.95 -170.89 -320.29c-298.69,-653.05 -380.41,-1598.57 82.54,-2189.36 93.29,-119.04 198.36,-215.79 332.54,-289.22 26.63,-14.57 67.43,-24.01 88.37,-51.14 -43.31,6.84 -143.86,50.85 -162.69,77.66z"/> <path class="fil15" d="M271.44 7229.08c45.13,-77.75 31.65,-95.35 126.8,-240.13l96.45 -129c22.3,-25.22 30.14,-51.62 65.47,-74.81 37.92,-24.88 17.07,-8.24 41.81,-43.61 16.02,-22.89 29.87,-26.94 51.57,-42.53l214.46 -159.08c42.66,-25.89 77.7,-47.91 118.04,-67.92 266.18,-131.94 524.14,-225.2 824.78,-268.75 54.69,-7.93 112.61,-14.94 168.93,-17.73 37.74,-1.87 155.43,5.94 174.69,-7.67 -9.69,-23.48 -4.82,-13.7 -26.97,-23.17 -130.7,-0.4 -233.74,0.54 -348.18,16.76 -101.78,14.42 -206.94,36.26 -302.56,62.43 -256.43,70.2 -640.43,234.9 -838.43,435.17 -32.7,33.07 -60.07,60.48 -93.14,93.24 -93.33,92.5 -265.17,348.47 -273.72,466.8z"/> <path class="fil1" d="M2688.78 6043.81c34.39,-17.02 50.68,-37.28 98.65,-52.48 57.11,-18.11 82.96,-9.18 139.92,-7.76 21.5,-31.56 94.33,-106.87 127.99,-124.06l15.52 -200.72 27.5 -178.24c-10.37,-16.27 -10.56,-16.15 -56.82,42.7 -20.24,25.76 -29.58,38.79 -50.43,66.12 -66.84,87.63 -124.75,196.03 -162.32,303.63 -17.46,50.02 -16.32,33.16 -65.56,50.99 -33.52,12.14 -53.74,31.84 -79.44,44.53l4.99 55.28z"/> <path class="fil14" d="M3756.75 6131.14c161.98,33.02 343.29,126.64 473.61,196.03 138.57,73.76 293.24,191.85 377.18,282.78 224,242.64 370.42,529.55 281.64,989.11 30.28,-34.7 57.53,-243.97 49.11,-349.07 -2.74,-34.19 -14.37,-82.41 -15.13,-117.14 -21.82,-3.78 -14.22,-62.57 -14.33,-85.17l-104.71 -245.95c-26.57,-49.51 -113.51,-181.72 -152.76,-202.91 -19.11,-12.92 -75.83,-69.79 -97.33,-90.78 -34.45,-33.65 -59.91,-53.77 -97.01,-81.5 -65.02,-48.62 -136.65,-99.11 -216.37,-140.98 -100.31,-52.67 -389.12,-193.73 -509.87,-197.3l25.97 42.87z"/> <path class="fil27" d="M5108.54 9695.57c31.22,29.43 79.65,54.06 112.58,82.88 22.72,19.89 34.74,28.63 54.29,46.68 18.89,17.44 32.06,36.61 50.57,49.69 49.69,-42.89 46.07,-35.27 111.11,-68.32 -54.11,-7.43 -66.99,-4.47 -116.52,6.2 35.9,-60.84 141.44,-96.54 234.58,-115.89l-31.37 -11.62c-70.2,-15.85 -161.07,-1.54 -226.87,23.39 4.82,-25.97 20.86,-47.14 36.17,-68.75 32.78,-46.24 32.56,-23.6 51.42,-62.69 -46.94,23.27 -50.06,38.85 -82.2,62.91 16.05,-99.17 105.65,-195.25 125.49,-238.58 -117.02,39.93 -281.62,200.41 -319.26,294.1z"/> <path class="fil15" d="M4160.82 4329.15l15.04 -1.84 2.39 -14.06 -23.17 -69.55c-31.31,-39.35 -97.31,-368.83 -109.85,-449.59 -71.07,-457.82 -25.84,-963.31 156.52,-1390.53 18.58,-43.54 16.23,-34.15 7.5,-40.85 -58.81,83.81 -133.75,312.02 -163.68,429.3 -45.46,178.13 -65.09,335.3 -73.97,527.78 -13.57,294.28 49.19,623.59 145.62,899.37 13,37.19 32.32,72.92 43.6,109.98z"/> <path class="fil4" d="M2891.04 6504.46c-4.94,21.56 -11.02,45.97 -17.24,62.78 -8.59,23.21 -17.3,30.69 -24.7,53.33 17.78,11.34 42.3,33.18 60.94,48.37l92.67 78.17c12.55,10.48 19.91,19.08 31.43,30.7 21.19,21.38 36.93,36.96 58.23,58.26l223.4 242.68c-15.97,-48.49 -44.55,-101.63 -65.46,-151.95 -20.87,-50.19 -40.29,-102.76 -55.96,-153.3 -42.64,-19.29 -151.39,-105.85 -187.82,-154.46 -74.42,-99.29 26.74,-112.7 60.31,-130.49l-46.31 -16.63c-38.61,-1.44 -66.26,32.91 -129.49,32.55z"/> <path class="fil19" d="M2814.03 6013.22c155.55,-42.19 236.54,164.28 86.06,207.48 -156.66,44.97 -265.11,-158.93 -86.06,-207.48zm82.26 373.81c151.78,-29.21 222.82,-252.25 60.22,-362.5 -104.68,-70.98 -333.02,-28.72 -301.7,226.76 177.73,-16.8 192.77,72.3 241.48,135.74z"/> <path class="fil18" d="M2896.29 6387.03c-48.71,-63.44 -63.76,-152.53 -241.48,-135.74 -31.31,-255.48 197.02,-297.74 301.7,-226.76 162.61,110.25 91.56,333.29 -60.22,362.5zm-207.51 -343.22c-21.94,32.93 -45.22,48.97 -64.59,94.87 -16.72,39.61 -21.89,84.24 -21.34,133.55l0.49 -1.08c2.06,1.55 7.53,4.43 8.96,4.78 41.86,10.43 102.74,-25.78 193.44,38.66 46.91,33.33 91.5,105.6 85.31,189.88 63.23,0.36 90.89,-33.99 129.49,-32.55 9.97,-23.17 -1,-4.15 13.66,-23.76l56.51 -60.56 -33.25 -333.93 -5.85 -7.77c-26.13,-6.97 -34.02,-22.5 -57.38,-35.81 -23.75,-13.54 -44.14,-15.27 -66.87,-26.52 -56.96,-1.42 -82.81,-10.35 -139.92,7.76 -47.97,15.21 -64.26,35.47 -98.65,52.48z"/> <path class="fil10" d="M5358.06 9571.57l0 0zm7.76 -7.76l-7.76 7.76 7.76 -7.76zm-117.63 -62.13l-36.92 40.27c-30.25,37.9 -98.1,93.88 -116.48,145.13l13.75 8.5c37.64,-93.69 202.24,-254.17 319.26,-294.1 -19.85,43.33 -109.44,139.41 -125.49,238.58 32.15,-24.06 35.26,-39.64 82.2,-62.91 -18.87,39.09 -18.64,16.44 -51.42,62.69 -15.31,21.61 -31.35,42.78 -36.17,68.75 65.79,-24.93 156.66,-39.24 226.87,-23.39l31.37 11.62c-93.14,19.35 -198.68,55.05 -234.58,115.89 49.53,-10.67 62.41,-13.63 116.52,-6.2 -65.04,33.06 -61.43,25.43 -111.11,68.32l32.07 38.13c29.5,-42.95 119.33,-77.35 194.14,-77.35l0 -15.53c-27,-7.21 -64.56,-39.69 -147.54,-46.59 23.47,-16.32 85.91,-27.49 115.26,-32.3 44.08,-7.21 86.25,-14.3 141.02,-14.3 -23.98,-32.73 -91.46,-48.33 -143.97,-57.95 -82.87,-15.17 -120.3,6.2 -182.2,11.35 28.87,-54.58 115.37,-121.93 173.26,-152.9 15.56,-8.32 24.11,-11.57 37.63,-16.73 8.89,-3.39 7.91,-2.38 17.05,-6.25 2.21,-0.94 8.77,-4.03 10.61,-4.93 1.35,-0.65 3.92,-2.21 5,-2.76 1.07,-0.55 3.39,-1.74 4.94,-2.81 -149.47,0 -163.53,55.49 -217.44,69.89 27.77,-104.01 213.23,-202.31 248.51,-232.97 -168.72,0 -295.35,127.56 -366.14,170.84z"/> <path class="fil28" d="M4909.63 4349.22c168.47,-21.63 555.57,142.1 675.78,211.2 204.2,117.38 368.16,251.19 505.65,395.31 73.49,77.04 144.94,143.09 211.54,231.2 71.89,95.11 121.86,151.23 188.92,261.48 243.07,399.65 226.71,543.79 272.15,630.06 -3.32,-160.76 -165.73,-489.62 -259.54,-642.8 -58.28,-95.16 -120.1,-176.67 -187.49,-262.92l-102.24 -122.97c-214.97,-222.57 -387.34,-400.09 -685.4,-549.36 -26.72,-13.38 -51.18,-22.13 -80.35,-36.15 -88.37,-42.48 -242.75,-89.51 -340.98,-109.43 -55.83,-11.31 -139.22,-25.19 -200.32,-25.19l2.3 19.56z"/> <path class="fil23" d="M2492.43 6434.57c-3.7,-22.71 2.26,-23.67 13.13,-44.28 85.28,-179.67 405.93,-39.13 296.98,167.41 -33.68,63.85 -119.01,122.28 -219.78,81.58 -106.22,-42.92 -130.57,-183.39 -90.33,-204.7zm110.9 -163.43c1.31,21.11 7.44,17.57 -10.44,17.57 -1.18,1.15 -3.33,1.03 -3.9,3.07l-45.96 30.06c-51.91,44.54 -79.17,95.72 -81.64,172.5l1.44 20.67 13.2 59.74c17.4,19.58 23.37,35.53 43.73,57.3 8.45,9.02 14.81,16.23 27.97,26.42 18.93,14.65 12.89,3.63 29.63,24.23 64.48,14.54 76.72,32.29 152.66,12.39 66.09,-17.32 76.46,-44.48 119.08,-74.52 7.4,-22.64 16.11,-30.11 24.7,-53.33 6.22,-16.8 12.3,-41.21 17.24,-62.78 6.19,-84.28 -38.41,-156.55 -85.31,-189.88 -90.7,-64.44 -151.58,-28.23 -193.44,-38.66 -1.43,-0.35 -6.9,-3.23 -8.96,-4.78z"/> <path class="fil27" d="M4351.28 9830.53l-9.13 0.04c-14.05,3.45 -31.67,-11.58 -46.06,-19.93 -17.08,-9.9 -29.55,-15.59 -47.09,-23.16 -39.27,-16.96 -67.48,-26.4 -111.21,-31.15 7.57,7.93 1.74,2.58 12.94,12.5 33.39,29.55 -30.71,-25.07 8.8,7.35l57.67 43.39c28.42,22.23 45.67,43.1 64.75,79.15 57.76,-0.28 110.5,14.63 161.1,26.59 16.84,-17.35 82.9,-110.89 87.79,-135.51l-58.75 -133.38 -24.61 -39.79c-20.98,-23.76 -3.89,-17.8 -31.49,-33.94 -14.54,-10.68 -39.29,-35.99 -51.39,-47.37 13.16,97.96 40.8,162.68 26.73,274.21 -5.59,-14.87 -14.19,-32.87 -21.57,-49.24 -4.77,-10.59 -7.94,-17.82 -13.72,-25.7l-18.05 -18.84c15.83,55.46 32.51,86.81 34.02,151.49 -34.7,-23.02 -19.65,-25.09 -20.72,-36.72z"/> <path class="fil24" d="M2505.56 6390.29c27.72,-16.84 33.17,-34.32 68.43,-46.2 34.56,-11.64 66.41,-10.96 96.53,4.89 42.3,22.27 77.83,84.19 44.26,151.57 -61.22,122.92 -263.35,92.01 -222.34,-65.97 -40.24,21.31 -15.9,161.79 90.33,204.7 100.76,40.7 186.09,-17.73 219.78,-81.58 108.96,-206.54 -211.7,-347.07 -296.98,-167.41z"/> <path class="fil25" d="M2505.56 6390.29c-10.86,20.62 -16.82,21.57 -13.13,44.28 -41.01,157.98 161.12,188.89 222.34,65.97 33.57,-67.39 -1.95,-129.3 -44.26,-151.57 -30.11,-15.85 -61.97,-16.53 -96.53,-4.89 -35.26,11.88 -40.71,29.36 -68.43,46.2z"/> <path class="fil15" d="M2657.67 5906.11l9.44 38.07c74.22,-150.2 9.47,-125.86 202.35,-398.94 71.27,-100.9 202.43,-235.06 296.96,-304.46 -3.59,22.37 -60.65,224.4 -68.06,239.77l-27.5 178.24c16.35,-22.25 16.35,-57.16 20.91,-84.57 4.87,-29.19 10.46,-56.43 17.04,-84.05 68.92,-289.26 216.17,-608.8 445.46,-789.92 37.87,-29.92 84.28,-61.19 118.94,-91.04 -38.66,8.81 -141.11,90.26 -169.41,118.28 -103.35,102.29 -183.33,189.18 -250.35,324.32 -36.65,73.91 -31.86,88.79 -83.18,134.26 -17.34,15.37 -26.17,20.46 -42.75,34.91 -171.39,149.43 -282.9,274.55 -387.72,474.29 -53.44,101.87 -58.12,158.78 -82.15,210.83z"/> <path class="fil26" d="M2814.03 6013.22c-179.05,48.56 -70.6,252.46 86.06,207.48 150.48,-43.2 69.49,-249.67 -86.06,-207.48z"/> <path class="fil15" d="M2592.89 6288.71c17.89,0 11.75,3.54 10.44,-17.57l-0.49 1.08c-16.8,-12.35 -7.99,-5.7 -21.65,-20.61 -5.73,-6.26 -14.72,-17.24 -18.72,-23.07l-97.39 -124.16c-423.4,-586.85 -343.18,-1108.72 -360.31,-1156.74 -7.9,284.11 -9.48,503.44 117.46,785.93 50.92,113.33 98.47,204.94 160.6,297.8 51.11,76.4 147.64,195.25 210.06,257.33z"/> <path class="fil0" d="M3194.35 6773.5l-80.2 -269.42c-15.76,-7.34 -28.19,-11.16 -47.3,-15.54 -33.58,17.79 -134.73,31.2 -60.31,130.49 36.43,48.61 145.18,135.17 187.82,154.46z"/> <path class="fil10" d="M4294.13 9522.05c40.15,36.04 70.7,165.28 74.16,211.4 -20.28,-58.26 -72.77,-84.7 -90.52,-123.05 -33.02,-18.65 -57.17,-35.74 -92.36,-54.36 11.46,31.64 8.86,7.64 40.06,45.33 13.35,16.13 28.78,34.31 37.6,51.59 17.46,13.29 31.88,39.38 40.68,62.92 18.84,29.19 37.37,71.07 47.54,114.65 1.07,11.63 -13.98,13.7 20.72,36.72 -1.51,-64.67 -18.19,-96.02 -34.02,-151.49l18.05 18.84c5.78,7.88 8.95,15.11 13.72,25.7 7.39,16.37 15.98,34.37 21.57,49.24 14.07,-111.54 -13.57,-176.25 -26.73,-274.21 12.11,11.38 36.85,36.7 51.39,47.37 -22.93,-54.67 -87.28,-92.27 -106.03,-127.61 -25.4,-16.59 -62.72,-47.19 -93.49,-54.35 25.22,37.65 64.03,73.37 77.66,121.32z"/> <path class="fil6" d="M3834.16 5005.2c45.96,-8.33 95.02,-24.38 146.01,-34.25 26.27,-5.09 52.19,-9.71 79.18,-13.47 30.35,-4.22 62.06,0.67 73.47,-23.83 -39.92,-7.65 -61.94,-10.19 -98.15,-25.96 -33.83,-14.75 -48.26,-29.59 -75.17,-43.07 -54.46,12.15 -63.81,0.48 -84.72,47.55 -13.56,30.54 -26.65,60.87 -40.63,93.04z"/> <path class="fil10" d="M4068.93 9726.89l0 0zm0 0c-37.09,-3.09 -59.69,-7.77 -108.73,-7.77 21.28,13.5 34.55,6.66 73.36,27.6 25.13,13.56 51.41,21.79 66.43,42.29 -66.01,0 -47.18,-2.62 -62.12,11.89 78.41,-13.2 83.93,-12.46 133.71,26.61l21.8 14.94c16.27,7.75 30.05,17.94 41.62,29.09 28.52,27.49 4.17,23.29 46.95,27.17 -19.08,-36.06 -36.33,-56.92 -64.75,-79.15l-57.67 -43.39c-39.5,-32.41 24.59,22.2 -8.8,-7.35 -11.2,-9.93 -5.38,-4.58 -12.94,-12.5 43.74,4.75 71.94,14.19 111.21,31.15 17.54,7.57 30.01,13.26 47.09,23.16 14.38,8.35 32,23.38 46.06,19.93 -29.46,-21.09 -79.28,-45.76 -103.59,-65.19 -20.96,-5.24 -9.17,7.4 -13.32,-15.2 -11.81,-6.13 -9.45,-5.05 -26.3,-7.77l2 12.83c-17.5,-4.54 -92.91,-16.73 -100.69,-21.18 -19.92,-11.38 -25.67,-39.74 -64.96,-59.91 14.3,-11.84 -22.06,-15.15 25.86,-8.24 -1.52,-1.21 -4,-4.82 -4.81,-3.3l-21.62 -10.3c-32.07,-10.24 -72.56,-10.86 -105.58,-10.86 19.38,26.46 103.7,36.19 139.79,85.43z"/> <path class="fil1" d="M4876.57 5053.22c22.85,-37.96 75.76,-49.15 100.96,-86.77 -33.28,-7.76 -58.46,-28.87 -93.19,-30.28l-152.48 -38.54c19.48,16.84 40.78,51.58 67.38,76.3 28.21,26.22 42.36,61.73 77.33,79.28z"/> <path class="fil10" d="M4123.28 9906.63c24.3,10 21.8,11.67 40.37,29.59 14.64,-2.6 68.04,-30.7 80.83,-38.48l-10.97 -7.42c-18.13,-9.33 2.48,-1.28 -17.66,-8.15 -13.14,-4.49 -23.96,-5.16 -36.95,-6.96l-39.86 -1.19 -51.14 -10.8 40 -16.51c-46.59,-26.19 -108.63,-23.07 -125.78,-34.39 -36.07,8.04 -42.94,13.5 -49.7,38.83 19.53,-9.37 92.64,-15.53 124.25,-15.53 -9.9,8.61 0.6,0.16 -13.6,9.69 -10.13,6.8 -9.36,5.24 -18.75,12.31 -14.37,10.85 -20.46,18.46 -29.78,32.36 45.67,-10.64 72.07,-5.9 108.72,16.65z"/> <path class="fil28" d="M3727.23 7653.79c27.59,15.69 33.51,29.48 59.19,48.97 22.95,17.43 38.13,32.25 66.49,47.26 -19.13,-32.66 -73.83,-65.59 -95.42,-88.2 -35.66,-37.36 -55.11,-58.36 -87.43,-91.09 -33.75,-34.19 -54.6,-55.15 -85.19,-93.08 -13.32,-16.52 -26.63,-33.5 -40.72,-52.6 -38.11,-51.66 -23.83,-42.1 -40.81,-43.48l-117.81 -180.95c12,59.04 154.28,248.96 196.06,295.57l145.64 157.59z"/> <path class="fil4" d="M4277.77 9610.4c17.75,38.35 70.24,64.79 90.52,123.05 -3.46,-46.12 -34.01,-175.37 -74.16,-211.4 -0.78,40.04 -11.8,52.74 -16.36,88.35z"/> <path class="fil21" d="M4198.94 9742.42c-10.23,-20.34 -2.83,-11.44 -25.43,-26.8 -15.12,-10.28 -20.58,-11.99 -34.26,-20.24 -22.89,-13.8 -42.33,-28.74 -78.1,-29.46 -47.93,-6.92 -11.56,-3.6 -25.86,8.24 39.29,20.17 45.04,48.53 64.96,59.91 7.78,4.45 83.18,16.64 100.69,21.18l-2 -12.83z"/> <path class="fil4" d="M3976.03 7768.31l23.56 65.62c17.06,-9.7 89.97,-111.63 100.68,-132.94 -27.12,10.24 -108.03,43 -124.24,67.32z"/> <path class="fil21" d="M4002.14 9812.31c17.15,11.32 79.18,8.2 125.78,34.39l-40 16.51 51.14 10.8c9.97,-23.97 11,-30.3 32.52,-46.49 -49.79,-39.07 -55.3,-39.81 -133.71,-26.61 -15.57,-3.56 -4.74,-4.47 -19.69,0.06 -33.12,10.04 -5.7,0.14 -16.03,11.35z"/> <path class="fil11" d="M4238.56 9765.39c24.31,19.43 74.13,44.09 103.59,65.19l9.13 -0.04c-10.17,-43.57 -28.7,-85.46 -47.54,-114.65 -31.04,12.65 -40.21,30.26 -65.19,49.5z"/> <path class="fil4" d="M4225.24 9750.19c4.15,22.6 -7.64,9.96 13.32,15.2 24.98,-19.24 34.15,-36.85 65.19,-49.5 -8.8,-23.54 -23.21,-49.63 -40.68,-62.92 -9.59,31.7 -19.27,73.3 -37.83,97.22z"/> <path class="fil12" d="M3610.74 6930.67c0.86,-1.66 2.04,-6.24 2.5,-5.03 0.47,1.2 2.11,-4.04 2.75,-4.91 12.31,-16.67 1.15,-2.75 10.94,-12.84 -9.15,-34.8 -14.24,-25.92 -35.13,-50.72 -10.26,-12.2 -23.95,-28.44 -33.76,-40.56 7.13,36.65 29.22,93.61 52.69,114.06z"/> <path class="fil17" d="M4099.98 9980.37c12.67,-4.77 23.01,-11.01 33.66,-17.77l30.01 -26.39c-18.57,-17.92 -16.08,-19.59 -40.37,-29.59 -16.91,29.22 -13.76,39.83 -23.3,73.75z"/> <path class="fil10" d="M4535.55 9646.51c27.6,-33.93 43.5,-47.46 67.41,-89l9.7 -35.41c-23.25,13.96 -23.52,19.11 -47.17,56.65 -14.39,22.85 -19.69,42.24 -29.94,67.76z"/> <path class="fil17" d="M4139.05 9874l39.86 1.19 14.46 -32.73 -21.8 -14.94c-21.53,16.19 -22.56,22.52 -32.52,46.49z"/> <polygon class="fil1" points="1910.03,5579.94 1910.03,5572.19 1900.97,5578.65 "/> </g> </g> </svg>